<?xml version="1.0" encoding="utf-8"?>
<!-- Generator: Adobe Illustrator 16.0.0, SVG Export Plug-In . SVG Version: 6.00 Build 0)  -->
<!DOCTYPE svg PUBLIC "-//W3C//DTD SVG 1.1//EN" "http://www.w3.org/Graphics/SVG/1.1/DTD/svg11.dtd" [
	<!ENTITY st0 "fill:#ED4A49;stroke:#231F20;stroke-miterlimit:10;">
	<!ENTITY st1 "fill:#F7D71E;stroke:#231F20;stroke-miterlimit:10;">
	<!ENTITY st2 "fill:#F1BB12;stroke:#231F20;stroke-miterlimit:10;">
	<!ENTITY st3 "fill:#429627;stroke:#231F20;stroke-miterlimit:10;">
	<!ENTITY st4 "fill:#F46D16;stroke:#231F20;stroke-miterlimit:10;">
	<!ENTITY st5 "fill:#2481BC;stroke:#231F20;stroke-miterlimit:10;">
	<!ENTITY st6 "fill:#303030;stroke:#231F20;stroke-miterlimit:10;">
	<!ENTITY st7 "fill:#2890D1;stroke:#231F20;stroke-miterlimit:10;">
	<!ENTITY st8 "fill:#73CDEA;stroke:#231F20;stroke-miterlimit:10;">
	<!ENTITY st9 "fill:#F4C918;stroke:#231F20;stroke-miterlimit:10;">
	<!ENTITY st10 "fill:#FABD5C;stroke:#231F20;stroke-miterlimit:10;">
	<!ENTITY st11 "fill:#F89D9C;stroke:#231F20;stroke-miterlimit:10;">
	<!ENTITY st12 "fill:#D8A810;stroke:#231F20;stroke-miterlimit:10;">
	<!ENTITY st13 "fill:#F8A726;stroke:#231F20;stroke-miterlimit:10;">
	<!ENTITY st14 "fill:#F9E156;stroke:#231F20;stroke-miterlimit:10;">
	<!ENTITY st15 "fill:#44BCE3;stroke:#231F20;stroke-miterlimit:10;">
	<!ENTITY st16 "fill:#D54242;stroke:#231F20;stroke-miterlimit:10;">
	<!ENTITY st17 "fill:#F68A1E;stroke:#231F20;stroke-miterlimit:10;">
	<!ENTITY st18 "fill:#004067;stroke:#231F20;stroke-miterlimit:10;">
	<!ENTITY st19 "fill:#DCF2FA;stroke:#231F20;stroke-miterlimit:10;">
	<!ENTITY st20 "fill:#F57C7B;stroke:#231F20;stroke-miterlimit:10;">
	<!ENTITY st21 "fill:#36A6DA;stroke:#231F20;stroke-miterlimit:10;">
	<!ENTITY st22 "fill:#4AA72B;stroke:#231F20;stroke-miterlimit:10;">
	<!ENTITY st23 "fill:#7CCB47;stroke:#231F20;stroke-miterlimit:10;">
	<!ENTITY st24 "fill:#63B939;stroke:#231F20;stroke-miterlimit:10;">
	<!ENTITY st25 "fill:#9DD875;stroke:#231F20;stroke-miterlimit:10;">
	<!ENTITY st26 "fill:#B9E6F5;stroke:#231F20;stroke-miterlimit:10;">
	<!ENTITY st27 "fill:#F16362;stroke:#231F20;stroke-miterlimit:10;">
	<!ENTITY st28 "fill:#DB6214;stroke:#231F20;stroke-miterlimit:10;">
]>
<svg version="1.1" id="Layer_1" xmlns="http://www.w3.org/2000/svg" xmlns:xlink="http://www.w3.org/1999/xlink" x="0px" y="0px"
	 width="960px" height="560px" viewBox="0 0 960 560" style="enable-background:new 0 0 960 560;" xml:space="preserve">
<g>
	<rect x="389.924" y="125.039" style="&st11;" width="50.382" height="50.382"/>
	<rect x="454.81" y="125.039" style="&st20;" width="50.382" height="50.382"/>
	<rect x="519.695" y="125.039" style="&st27;" width="50.381" height="50.382"/>
	<rect x="584.58" y="125.039" style="&st0;" width="50.383" height="50.382"/>
	<rect x="649.467" y="125.039" style="&st16;" width="50.381" height="50.382"/>
	<rect x="389.924" y="189.924" style="&st8;" width="50.382" height="50.382"/>
	<rect x="454.81" y="189.924" style="&st15;" width="50.382" height="50.382"/>
	<rect x="325.038" y="189.924" style="&st26;" width="50.382" height="50.382"/>
	<rect x="260.152" y="189.924" style="&st19;" width="50.382" height="50.382"/>
	<rect x="325.038" y="254.809" style="&st6;" width="50.382" height="50.382"/>
	<rect x="260.152" y="254.809" style="&st18;" width="50.382" height="50.382"/>
	<rect x="519.695" y="189.924" style="&st21;" width="50.381" height="50.382"/>
	<rect x="584.58" y="189.924" style="&st7;" width="50.383" height="50.382"/>
	<rect x="649.467" y="189.924" style="&st5;" width="50.381" height="50.382"/>
	<rect x="389.924" y="254.809" style="&st10;" width="50.382" height="50.382"/>
	<rect x="454.81" y="254.809" style="&st13;" width="50.382" height="50.382"/>
	<rect x="519.695" y="254.809" style="&st17;" width="50.381" height="50.382"/>
	<rect x="584.58" y="254.809" style="&st4;" width="50.383" height="50.382"/>
	<rect x="649.467" y="254.809" style="&st28;" width="50.381" height="50.382"/>
	<rect x="389.924" y="319.693" style="&st25;" width="50.382" height="50.383"/>
	<rect x="454.81" y="319.693" style="&st23;" width="50.382" height="50.383"/>
	<rect x="519.695" y="319.693" style="&st24;" width="50.381" height="50.383"/>
	<rect x="584.58" y="319.693" style="&st22;" width="50.383" height="50.383"/>
	<rect x="649.467" y="319.693" style="&st3;" width="50.381" height="50.383"/>
	<rect x="389.924" y="384.58" style="&st14;" width="50.382" height="50.381"/>
	<rect x="454.81" y="384.58" style="&st1;" width="50.382" height="50.381"/>
	<rect x="519.695" y="384.58" style="&st9;" width="50.381" height="50.381"/>
	<rect x="584.58" y="384.58" style="&st2;" width="50.383" height="50.381"/>
	<rect x="649.467" y="384.58" style="&st12;" width="50.381" height="50.381"/>
</g>
</svg>
