<?xml version="1.0" encoding="utf-8"?>
<!-- Generator: Adobe Illustrator 16.0.0, SVG Export Plug-In . SVG Version: 6.00 Build 0)  -->
<!DOCTYPE svg PUBLIC "-//W3C//DTD SVG 1.1//EN" "http://www.w3.org/Graphics/SVG/1.1/DTD/svg11.dtd">
<svg version="1.1" id="Laag_1" xmlns="http://www.w3.org/2000/svg" xmlns:xlink="http://www.w3.org/1999/xlink" x="0px" y="0px"
	 width="734px" height="418px" viewBox="0 0 734 418" enable-background="new 0 0 734 418" xml:space="preserve">
<g>
	<g>
		<g>
			<path fill="#56A7DD" d="M179.467,81.621c0.004,2.716-0.979,4.832-2.95,6.353c-1.966,1.52-4.638,2.281-8.014,2.283
				c-3.659,0.003-6.474-0.466-8.444-1.409v-3.461c1.266,0.534,2.646,0.954,4.135,1.264c1.494,0.311,2.971,0.462,4.431,0.462
				c2.393-0.002,4.195-0.455,5.402-1.365c1.207-0.907,1.815-2.169,1.811-3.787c0-1.07-0.216-1.946-0.642-2.627
				c-0.43-0.682-1.148-1.313-2.156-1.887c-1.005-0.576-2.537-1.23-4.588-1.96c-2.873-1.025-4.924-2.241-6.152-3.646
				c-1.233-1.408-1.849-3.243-1.853-5.507c0-2.378,0.89-4.269,2.675-5.679c1.79-1.407,4.153-2.112,7.09-2.114
				c3.068,0,5.887,0.561,8.462,1.684l-1.115,3.123c-2.548-1.068-5.021-1.6-7.427-1.6c-1.899,0.003-3.384,0.41-4.452,1.228
				c-1.072,0.817-1.604,1.948-1.604,3.398c0,1.069,0.199,1.945,0.595,2.627c0.393,0.681,1.059,1.308,1.992,1.876
				c0.937,0.569,2.372,1.198,4.296,1.886c3.237,1.152,5.461,2.389,6.681,3.709C178.859,77.794,179.467,79.511,179.467,81.621"/>
			<path fill="#56A7DD" d="M196.019,90.24c-1.507,0.002-2.882-0.276-4.127-0.831c-1.245-0.553-2.292-1.408-3.136-2.562h-0.253
				c0.169,1.351,0.253,2.631,0.257,3.84l0.005,9.517l-3.503,0.002l-0.021-33.508l2.848-0.002l0.49,3.165h0.169
				c0.899-1.266,1.945-2.18,3.14-2.745c1.198-0.563,2.57-0.844,4.114-0.846c3.068-0.002,5.436,1.046,7.103,3.14
				c1.667,2.095,2.502,5.036,2.506,8.82c0,3.798-0.844,6.748-2.536,8.851C201.379,89.187,199.028,90.238,196.019,90.24
				 M195.5,69.245c-2.363,0.002-4.072,0.658-5.127,1.967c-1.055,1.308-1.596,3.39-1.621,6.245v0.781c0,3.25,0.544,5.575,1.629,6.974
				s2.823,2.097,5.212,2.095c2,0,3.562-0.81,4.693-2.429c1.135-1.618,1.696-3.846,1.696-6.688c-0.004-2.885-0.57-5.096-1.705-6.637
				C199.146,70.013,197.551,69.245,195.5,69.245"/>
			<path fill="#56A7DD" d="M231.691,78.212c0,3.771-0.945,6.717-2.844,8.833c-1.899,2.119-4.52,3.178-7.867,3.18
				c-2.068,0.002-3.907-0.483-5.511-1.452c-1.604-0.97-2.84-2.361-3.714-4.175c-0.873-1.815-1.312-3.94-1.312-6.373
				c-0.005-3.771,0.937-6.706,2.823-8.809c1.882-2.106,4.499-3.159,7.845-3.161c3.237-0.002,5.807,1.074,7.715,3.224
				C230.733,71.631,231.688,74.542,231.691,78.212 M214.072,78.223c0,2.954,0.595,5.206,1.777,6.752
				c1.181,1.547,2.92,2.319,5.212,2.317c2.295,0,4.034-0.772,5.22-2.313c1.19-1.54,1.781-3.796,1.781-6.764
				c-0.005-2.94-0.6-5.172-1.79-6.698c-1.185-1.525-2.941-2.287-5.262-2.287c-2.296,0.002-4.026,0.757-5.191,2.262
				C214.654,72.996,214.068,75.241,214.072,78.223"/>
			<path fill="#56A7DD" d="M253.662,89.784l-0.008-14.96c0-1.885-0.431-3.29-1.288-4.218c-0.86-0.929-2.202-1.393-4.03-1.391
				c-2.422,0.002-4.195,0.656-5.317,1.965c-1.123,1.31-1.688,3.469-1.684,6.479l0.004,12.132l-3.502,0.003l-0.013-23.127
				l2.848-0.002l0.574,3.165h0.169c0.718-1.139,1.722-2.023,3.013-2.65c1.296-0.627,2.739-0.941,4.326-0.941
				c2.785-0.002,4.883,0.667,6.292,2.011c1.405,1.344,2.11,3.49,2.11,6.444l0.009,15.087L253.662,89.784z"/>
			<path fill="#56A7DD" d="M279.277,83.46c0,2.152-0.802,3.815-2.405,4.982c-1.604,1.167-3.853,1.753-6.748,1.755
				c-3.068,0.003-5.461-0.483-7.179-1.451v-3.25c1.11,0.564,2.304,1.005,3.579,1.327c1.27,0.323,2.498,0.484,3.68,0.484
				c1.831-0.002,3.237-0.294,4.22-0.878c0.983-0.587,1.477-1.475,1.477-2.671c0-0.901-0.393-1.672-1.173-2.309
				c-0.781-0.639-2.304-1.397-4.571-2.266c-2.152-0.802-3.684-1.5-4.591-2.097c-0.907-0.598-1.583-1.275-2.026-2.035
				c-0.443-0.759-0.667-1.667-0.667-2.722c0-1.884,0.764-3.371,2.296-4.464c1.536-1.091,3.638-1.638,6.309-1.638
				c2.49-0.002,4.925,0.502,7.301,1.515l-1.241,2.849c-2.321-0.954-4.427-1.433-6.309-1.431c-1.663,0-2.912,0.26-3.756,0.783
				c-0.844,0.521-1.266,1.239-1.266,2.152c0,0.618,0.161,1.146,0.477,1.583c0.317,0.437,0.827,0.85,1.528,1.243
				c0.705,0.394,2.055,0.964,4.055,1.707c2.743,0.998,4.596,2.002,5.563,3.015C278.792,80.657,279.273,81.927,279.277,83.46"/>
			<path fill="#56A7DD" d="M304.932,78.17c0,3.771-0.945,6.717-2.844,8.833c-1.899,2.119-4.52,3.178-7.867,3.18
				c-2.068,0.002-3.907-0.483-5.511-1.452c-1.604-0.97-2.84-2.361-3.714-4.176c-0.873-1.814-1.312-3.939-1.312-6.372
				c-0.005-3.771,0.937-6.706,2.823-8.812c1.882-2.103,4.499-3.156,7.845-3.158c3.237-0.002,5.807,1.074,7.715,3.224
				C303.974,71.589,304.928,74.499,304.932,78.17 M287.312,78.181c0,2.954,0.595,5.206,1.777,6.752
				c1.181,1.545,2.92,2.319,5.212,2.317c2.295,0,4.034-0.772,5.22-2.313c1.19-1.54,1.781-3.796,1.781-6.764
				c-0.004-2.94-0.6-5.174-1.79-6.698c-1.185-1.525-2.941-2.287-5.262-2.287c-2.296,0.002-4.026,0.755-5.191,2.262
				C287.895,72.954,287.309,75.199,287.312,78.181"/>
			<path fill="#56A7DD" d="M321.614,66.198c1.03-0.002,1.95,0.082,2.764,0.251l-0.481,3.25c-0.958-0.211-1.802-0.315-2.532-0.315
				c-1.874,0-3.473,0.762-4.802,2.281c-1.326,1.522-1.992,3.414-1.988,5.678l0.004,12.408l-3.503,0.002l-0.012-23.127l2.89-0.002
				l0.406,4.284h0.168c0.857-1.507,1.891-2.667,3.098-3.484C318.837,66.607,320.167,66.198,321.614,66.198"/>
			<path fill="#56A7DD" d="M338.49,90.158c-3.418,0.002-6.119-1.036-8.094-3.118c-1.979-2.081-2.971-4.972-2.971-8.671
				c-0.004-3.728,0.916-6.688,2.747-8.885c1.836-2.195,4.301-3.294,7.394-3.296c2.899,0,5.191,0.952,6.883,2.855
				c1.688,1.905,2.532,4.421,2.536,7.543v2.216l-15.931,0.008c0.072,2.716,0.76,4.776,2.06,6.183
				c1.304,1.405,3.135,2.108,5.499,2.106c2.489-0.002,4.954-0.524,7.385-1.566v3.123c-1.237,0.534-2.41,0.92-3.511,1.152
				C341.385,90.04,340.052,90.158,338.49,90.158 M337.528,69.121c-1.857,0.002-3.338,0.608-4.444,1.819
				c-1.101,1.209-1.751,2.884-1.945,5.022l12.09-0.006c-0.004-2.21-0.493-3.9-1.481-5.075
				C340.761,69.706,339.355,69.121,337.528,69.121"/>
			<path fill="#56A7DD" d="M368.701,86.617h-0.188c-1.621,2.348-4.035,3.526-7.259,3.528c-3.022,0.002-5.377-1.032-7.06-3.098
				c-1.684-2.067-2.524-5.007-2.528-8.82c0-3.813,0.84-6.773,2.528-8.883c1.688-2.112,4.034-3.167,7.047-3.169
				c3.136-0.002,5.541,1.135,7.217,3.414h0.273l-0.147-1.667l-0.084-1.625l-0.01-9.411l3.504-0.002l0.021,32.833l-2.848,0.002
				L368.701,86.617z M361.697,87.212c2.389-0.002,4.123-0.652,5.199-1.956c1.076-1.302,1.612-3.401,1.612-6.299l-0.004-0.738
				c0-3.277-0.544-5.617-1.637-7.016c-1.093-1.397-2.832-2.097-5.225-2.095c-2.051,0-3.625,0.799-4.714,2.397
				c-1.089,1.597-1.633,3.851-1.633,6.762c0.004,2.955,0.549,5.185,1.629,6.689C358.009,86.461,359.6,87.212,361.697,87.212"/>
			<path fill="#56A7DD" d="M389.334,81.709c0-1.83,0.485-3.446,1.465-4.853c0.975-1.41,2.73-2.83,5.263-4.267
				c-1.198-1.333-2.014-2.346-2.439-3.036c-0.431-0.69-0.771-1.408-1.026-2.152c-0.253-0.745-0.38-1.52-0.38-2.321
				c-0.004-2.111,0.688-3.756,2.064-4.938c1.376-1.184,3.296-1.775,5.761-1.777c2.278,0,4.072,0.585,5.38,1.76
				c1.31,1.173,1.963,2.809,1.968,4.904c0,1.504-0.481,2.895-1.436,4.169c-0.954,1.273-2.536,2.564-4.743,3.874l8.592,8.247
				c0.785-0.874,1.418-1.897,1.887-3.073c0.469-1.175,0.869-2.458,1.189-3.851l3.545-0.002c-0.954,4.024-2.396,7.075-4.32,9.16
				l6.312,6.136l-4.832,0.002l-3.908-3.751c-1.657,1.491-3.346,2.559-5.06,3.209c-1.717,0.648-3.629,0.973-5.739,0.975
				c-3.021,0-5.372-0.743-7.039-2.235C390.17,86.4,389.334,84.34,389.334,81.709 M398.96,86.979c3.39,0,6.2-1.085,8.437-3.254
				l-9.226-8.94c-1.561,0.956-2.663,1.747-3.312,2.376c-0.646,0.626-1.122,1.297-1.431,2.015c-0.312,0.717-0.465,1.534-0.465,2.447
				c0,1.646,0.545,2.95,1.639,3.915C395.694,86.5,397.146,86.98,398.96,86.979 M395.677,64.993c0,0.971,0.253,1.895,0.761,2.775
				c0.506,0.88,1.371,1.937,2.595,3.173c1.815-1.055,3.076-2.03,3.79-2.924c0.709-0.893,1.062-1.925,1.062-3.092
				c-0.004-1.082-0.366-1.966-1.089-2.648c-0.726-0.679-1.691-1.021-2.902-1.021c-1.249,0.002-2.267,0.34-3.048,1.015
				C396.065,62.946,395.673,63.854,395.677,64.993"/>
			<path fill="#56A7DD" d="M449.265,89.672l-0.009-14.96c0-1.885-0.431-3.292-1.292-4.22c-0.855-0.929-2.197-1.391-4.029-1.391
				c-2.432,0.002-4.207,0.663-5.326,1.988c-1.118,1.323-1.675,3.488-1.675,6.499l0.008,12.09l-3.502,0.002l-0.022-32.832
				l3.503-0.002l0.01,9.938c0,1.197-0.056,2.188-0.169,2.975h0.211c0.691-1.112,1.671-1.987,2.94-2.629
				c1.275-0.639,2.727-0.962,4.36-0.962c2.827-0.002,4.946,0.669,6.364,2.011c1.412,1.344,2.121,3.477,2.121,6.404l0.01,15.087
				L449.265,89.672z"/>
			<path fill="#56A7DD" d="M479.915,78.069c0.004,3.771-0.945,6.717-2.84,8.833c-1.899,2.119-4.521,3.178-7.871,3.18
				c-2.068,0.002-3.903-0.483-5.507-1.452c-1.604-0.97-2.844-2.363-3.718-4.176c-0.869-1.814-1.309-3.939-1.312-6.372
				c0-3.771,0.941-6.706,2.823-8.812c1.882-2.103,4.499-3.156,7.849-3.158c3.233-0.002,5.808,1.074,7.715,3.224
				C478.957,71.488,479.915,74.398,479.915,78.069 M462.296,78.08c0.004,2.954,0.595,5.206,1.777,6.752
				c1.186,1.545,2.92,2.319,5.216,2.317c2.291,0,4.034-0.772,5.22-2.313c1.187-1.542,1.781-3.796,1.777-6.764
				c0-2.94-0.595-5.174-1.785-6.698c-1.189-1.525-2.946-2.287-5.267-2.287c-2.292,0.002-4.022,0.755-5.191,2.262
				C462.878,72.853,462.296,75.098,462.296,78.08"/>
			<path fill="#56A7DD" d="M500.978,83.332c0,2.152-0.798,3.815-2.4,4.982c-1.604,1.169-3.854,1.753-6.752,1.755
				c-3.064,0.003-5.461-0.483-7.176-1.451l-0.004-3.25c1.114,0.564,2.31,1.005,3.579,1.327c1.274,0.323,2.502,0.484,3.685,0.484
				c1.826-0.002,3.232-0.294,4.22-0.878c0.982-0.585,1.473-1.475,1.473-2.671c0-0.901-0.393-1.672-1.173-2.309
				c-0.781-0.639-2.304-1.397-4.565-2.266c-2.157-0.8-3.686-1.5-4.593-2.098c-0.906-0.597-1.583-1.274-2.029-2.034
				c-0.443-0.759-0.662-1.667-0.662-2.722c-0.005-1.884,0.763-3.371,2.295-4.464c1.532-1.091,3.634-1.638,6.309-1.638
				c2.49-0.002,4.921,0.502,7.301,1.515l-1.244,2.849c-2.321-0.954-4.423-1.433-6.31-1.431c-1.658,0-2.912,0.26-3.756,0.783
				c-0.844,0.521-1.266,1.239-1.262,2.152c0,0.618,0.156,1.146,0.473,1.583c0.317,0.437,0.827,0.85,1.532,1.243
				c0.701,0.394,2.055,0.964,4.051,1.707c2.743,0.998,4.596,2.002,5.562,3.015C500.497,80.528,500.978,81.798,500.978,83.332"/>
			<path fill="#56A7DD" d="M514.148,87.166c0.616,0,1.215-0.049,1.794-0.139c0.573-0.091,1.034-0.186,1.371-0.285v2.68
				c-0.38,0.183-0.94,0.333-1.675,0.453c-0.739,0.123-1.406,0.182-1.996,0.182c-4.474,0.002-6.71-2.353-6.715-7.065l-0.008-13.757
				l-3.313,0.002v-1.688l3.313-1.458l1.473-4.94h2.025l0.005,5.36l6.71-0.005v2.722l-6.71,0.005l0.008,13.609
				c0,1.393,0.333,2.463,0.992,3.208C512.085,86.792,512.992,87.166,514.148,87.166"/>
			<path fill="#56A7DD" d="M531.704,90.046c-3.418,0.002-6.115-1.036-8.094-3.118c-1.979-2.081-2.967-4.972-2.971-8.671
				c0-3.728,0.916-6.688,2.751-8.885c1.832-2.195,4.297-3.294,7.394-3.296c2.896-0.002,5.191,0.952,6.879,2.855
				c1.688,1.905,2.536,4.42,2.536,7.543v2.216l-15.931,0.008c0.071,2.716,0.76,4.775,2.063,6.181
				c1.305,1.407,3.137,2.11,5.499,2.108c2.49-0.002,4.95-0.524,7.381-1.566l0.005,3.123c-1.241,0.534-2.41,0.92-3.516,1.152
				C534.6,89.928,533.267,90.046,531.704,90.046 M530.742,69.009c-1.857,0.002-3.338,0.608-4.439,1.817
				c-1.102,1.211-1.756,2.886-1.949,5.024l12.09-0.006c0-2.21-0.493-3.9-1.481-5.075C533.979,69.593,532.574,69.009,530.742,69.009"
				/>
			<path fill="#56A7DD" d="M561.916,86.505h-0.189c-1.616,2.348-4.03,3.526-7.254,3.528c-3.022,0.002-5.377-1.032-7.061-3.098
				c-1.684-2.067-2.523-5.007-2.528-8.82c0-3.813,0.841-6.773,2.528-8.883c1.688-2.112,4.034-3.167,7.047-3.169
				c3.137-0.002,5.541,1.135,7.217,3.414h0.274l-0.152-1.667l-0.084-1.625l-0.005-9.411l3.503-0.002l0.018,32.833l-2.85,0.002
				L561.916,86.505z M554.915,87.101c2.39-0.002,4.123-0.654,5.199-1.956c1.072-1.302,1.608-3.401,1.608-6.299v-0.738
				c-0.005-3.277-0.55-5.617-1.638-7.016c-1.093-1.397-2.832-2.097-5.225-2.095c-2.051,0-3.625,0.799-4.714,2.397
				c-1.089,1.597-1.633,3.851-1.633,6.762c0.004,2.955,0.549,5.185,1.629,6.689C551.228,86.35,552.818,87.101,554.915,87.101"/>
			<path fill="#56A7DD" d="M594.631,66.082c3.039-0.002,5.397,1.034,7.082,3.108c1.683,2.072,2.522,5.009,2.526,8.808
				c0,3.798-0.844,6.748-2.536,8.853c-1.695,2.104-4.047,3.157-7.056,3.159c-1.507,0-2.882-0.278-4.127-0.831
				c-1.245-0.555-2.292-1.41-3.136-2.562h-0.253l-0.739,2.975l-2.51,0.002l-0.018-32.832l3.502-0.002l0.006,7.976
				c0,1.787-0.056,3.391-0.165,4.811h0.169C589.006,67.238,591.424,66.084,594.631,66.082 M594.129,69.015
				c-2.394,0.002-4.115,0.688-5.17,2.059c-1.056,1.374-1.582,3.685-1.578,6.934c0,3.25,0.544,5.575,1.629,6.972
				c1.085,1.399,2.823,2.097,5.212,2.097c2.152-0.002,3.756-0.787,4.811-2.357c1.056-1.568,1.578-3.823,1.578-6.763
				c-0.004-3.011-0.532-5.254-1.587-6.731C597.969,69.751,596.336,69.013,594.129,69.015"/>
			<path fill="#56A7DD" d="M606.68,66.454l3.756-0.002l5.071,13.186c1.115,3.011,1.803,5.182,2.073,6.518h0.168
				c0.183-0.718,0.566-1.946,1.148-3.682c0.583-1.737,2.49-7.082,5.719-16.031l3.755-0.002l-9.921,26.34
				c-0.982,2.602-2.131,4.45-3.448,5.541c-1.312,1.091-2.929,1.638-4.84,1.638c-1.072,0.002-2.127-0.118-3.166-0.357l-0.004-2.806
				c0.777,0.169,1.642,0.253,2.601,0.253c2.404-0.002,4.118-1.355,5.144-4.056l1.283-3.291L606.68,66.454z"/>
		</g>
		<g>
			<path fill="#56A7DD" d="M402.473,368.683c0,3.126-1.063,5.53-3.198,7.215c-2.129,1.683-5.183,2.527-9.154,2.527l-3.634,0.004
				l0.009,12.146h-3.592l-0.016-30.883l8.005-0.004C398.607,359.684,402.469,362.683,402.473,368.683 M386.486,375.345l3.232-0.004
				c3.181,0,5.484-0.517,6.907-1.546c1.42-1.027,2.13-2.676,2.13-4.943c0-2.041-0.672-3.562-2.011-4.562
				c-1.335-0.997-3.422-1.496-6.253-1.496l-4.014,0.004L386.486,375.345z"/>
			<path fill="#56A7DD" d="M422.658,390.554l-0.696-3.295h-0.169c-1.157,1.453-2.307,2.433-3.456,2.948
				c-1.145,0.516-2.577,0.773-4.296,0.773c-2.294,0-4.095-0.587-5.399-1.77c-1.302-1.184-1.956-2.865-1.956-5.05
				c-0.005-4.672,3.734-7.127,11.212-7.354l3.93-0.131v-1.437c0-1.816-0.394-3.155-1.175-4.021
				c-0.781-0.867-2.031-1.303-3.752-1.297c-1.926,0-4.11,0.591-6.548,1.777l-1.078-2.683c1.142-0.621,2.393-1.106,3.748-1.461
				c1.36-0.352,2.72-0.528,4.089-0.528c2.76-0.005,4.805,0.608,6.14,1.833c1.331,1.226,1.994,3.19,1.998,5.895l0.009,15.8H422.658z
				 M414.737,388.087c2.181,0,3.896-0.601,5.143-1.801c1.246-1.194,1.867-2.873,1.867-5.026l-0.005-2.091l-3.507,0.151
				c-2.788,0.098-4.795,0.532-6.028,1.301c-1.229,0.77-1.847,1.96-1.847,3.582c0,1.269,0.386,2.231,1.154,2.891
				C412.282,387.757,413.355,388.087,414.737,388.087"/>
			<path fill="#56A7DD" d="M443.031,366.967c1.026,0,1.947,0.084,2.767,0.253l-0.486,3.254c-0.954-0.212-1.799-0.316-2.534-0.316
				c-1.871,0-3.473,0.764-4.804,2.285c-1.331,1.521-1.994,3.418-1.994,5.683l0.008,12.42l-3.506,0.005l-0.013-23.152l2.894-0.004
				l0.401,4.288h0.169c0.862-1.508,1.897-2.67,3.106-3.485C440.247,367.377,441.578,366.967,443.031,366.967"/>
			<path fill="#56A7DD" d="M457.619,388.062c0.617,0,1.217-0.047,1.796-0.14c0.574-0.089,1.035-0.186,1.373-0.283v2.683
				c-0.381,0.182-0.943,0.334-1.678,0.452c-0.739,0.123-1.407,0.182-1.998,0.182c-4.479,0.004-6.718-2.353-6.723-7.072
				l-0.008-13.772l-3.316,0.004v-1.69l3.316-1.461l1.474-4.942h2.028l0.005,5.364l6.717-0.004v2.726l-6.717,0.004l0.008,13.625
				c0,1.394,0.334,2.463,0.993,3.206C455.553,387.689,456.461,388.062,457.619,388.062"/>
			<path fill="#56A7DD" d="M481.256,390.52l-0.008-14.977c0-1.888-0.431-3.295-1.293-4.224c-0.857-0.931-2.201-1.396-4.035-1.391
				c-2.421,0-4.194,0.654-5.322,1.964c-1.124,1.311-1.687,3.474-1.687,6.489l0.009,12.146h-3.507l-0.012-23.151h2.851l0.571,3.168
				h0.169c0.718-1.145,1.723-2.028,3.021-2.653c1.293-0.629,2.737-0.941,4.331-0.941c2.787-0.004,4.883,0.668,6.295,2.011
				c1.41,1.344,2.115,3.494,2.115,6.451l0.01,15.104L481.256,390.52z"/>
			<path fill="#56A7DD" d="M501.746,390.93c-3.422,0.005-6.121-1.039-8.104-3.122c-1.98-2.083-2.97-4.977-2.974-8.678
				c0-3.734,0.917-6.7,2.755-8.897c1.833-2.197,4.3-3.295,7.401-3.299c2.897,0,5.197,0.95,6.887,2.859
				c1.69,1.905,2.539,4.423,2.539,7.551v2.218l-15.949,0.008c0.072,2.721,0.762,4.778,2.066,6.188
				c1.306,1.407,3.139,2.108,5.505,2.108c2.493,0,4.956-0.522,7.389-1.567l0.004,3.127c-1.241,0.536-2.411,0.921-3.519,1.153
				C504.645,390.812,503.309,390.93,501.746,390.93 M500.783,369.869c-1.859,0-3.342,0.608-4.444,1.821
				c-1.103,1.208-1.758,2.89-1.952,5.027l12.104-0.009c0-2.21-0.495-3.903-1.483-5.078
				C504.023,370.456,502.617,369.869,500.783,369.869"/>
			<path fill="#56A7DD" d="M526.782,366.921c1.031-0.005,1.952,0.08,2.767,0.249l-0.48,3.253c-0.959-0.211-1.804-0.312-2.535-0.312
				c-1.876,0-3.477,0.76-4.808,2.281c-1.327,1.521-1.994,3.418-1.99,5.687l0.004,12.42h-3.506l-0.013-23.15h2.894l0.406,4.288h0.169
				c0.856-1.508,1.892-2.67,3.101-3.49C524.002,367.326,525.333,366.921,526.782,366.921"/>
		</g>
		<g>
			<path fill="#56A7DD" d="M212.413,78.108c0.005,3.774-0.946,6.72-2.842,8.838c-1.901,2.12-4.524,3.183-7.878,3.185
				c-2.069,0-3.907-0.484-5.512-1.455c-1.605-0.972-2.847-2.364-3.721-4.18c-0.87-1.816-1.309-3.943-1.313-6.378
				c0-3.774,0.941-6.712,2.825-8.817c1.884-2.108,4.503-3.162,7.857-3.162c3.235-0.002,5.811,1.073,7.721,3.225
				C211.455,71.518,212.413,74.433,212.413,78.108 M194.778,78.116c0.004,2.957,0.596,5.21,1.778,6.758
				c1.187,1.548,2.923,2.321,5.221,2.321c2.293-0.002,4.038-0.775,5.225-2.317c1.187-1.541,1.782-3.797,1.778-6.768
				c0-2.942-0.596-5.179-1.787-6.706c-1.191-1.527-2.948-2.289-5.271-2.287c-2.294,0-4.025,0.756-5.195,2.262
				C195.361,72.885,194.778,75.132,194.778,78.116"/>
			<path fill="#56A7DD" d="M233.494,83.375c0,2.154-0.798,3.816-2.403,4.984c-1.605,1.17-3.857,1.757-6.758,1.757
				c-3.067,0.002-5.466-0.481-7.181-1.453l-0.004-3.252c1.115,0.564,2.31,1.007,3.582,1.328c1.275,0.323,2.504,0.486,3.687,0.484
				c1.829,0,3.235-0.294,4.224-0.879c0.984-0.585,1.474-1.474,1.474-2.671c0-0.902-0.393-1.673-1.174-2.313
				c-0.782-0.64-2.306-1.396-4.57-2.268c-2.159-0.8-3.688-1.502-4.596-2.097c-0.908-0.598-1.584-1.278-2.032-2.038
				c-0.443-0.76-0.663-1.668-0.663-2.724c-0.004-1.886,0.765-3.375,2.298-4.467c1.533-1.094,3.637-1.639,6.315-1.641
				c2.492-0.002,4.925,0.505,7.307,1.516l-1.246,2.851c-2.323-0.954-4.427-1.434-6.315-1.431c-1.66,0-2.914,0.261-3.759,0.783
				c-0.845,0.522-1.267,1.24-1.263,2.154c0,0.619,0.156,1.147,0.473,1.584c0.317,0.437,0.828,0.851,1.533,1.246
				c0.702,0.395,2.057,0.963,4.055,1.709c2.746,0.996,4.6,2.002,5.567,3.015C233.012,80.566,233.494,81.84,233.494,83.375"/>
			<path fill="#56A7DD" d="M246.676,87.21c0.617,0,1.216-0.046,1.795-0.137c0.575-0.091,1.035-0.188,1.373-0.287v2.682
				c-0.38,0.183-0.942,0.335-1.677,0.456c-0.739,0.12-1.407,0.179-1.998,0.179c-4.477,0.005-6.716-2.354-6.72-7.07l-0.008-13.77
				l-3.316,0.002v-1.689l3.316-1.46l1.474-4.942l2.027-0.002l0.004,5.365l6.716-0.005v2.725l-6.716,0.004l0.009,13.622
				c0,1.394,0.334,2.464,0.992,3.21C244.611,86.838,245.52,87.212,246.676,87.21"/>
			<path fill="#56A7DD" d="M264.248,90.093c-3.421,0.002-6.12-1.037-8.101-3.12c-1.981-2.084-2.97-4.977-2.974-8.68
				c0-3.731,0.917-6.694,2.754-8.891c1.833-2.198,4.3-3.299,7.4-3.299c2.898-0.002,5.196,0.951,6.885,2.858
				c1.69,1.905,2.539,4.422,2.539,7.548v2.217l-15.945,0.009c0.071,2.718,0.76,4.779,2.065,6.188
				c1.305,1.406,3.138,2.109,5.504,2.107c2.492,0,4.954-0.523,7.387-1.567l0.004,3.126c-1.241,0.536-2.411,0.921-3.518,1.153
				C267.146,89.976,265.811,90.093,264.248,90.093 M263.284,69.039c-1.858,0-3.341,0.608-4.443,1.818
				c-1.103,1.21-1.758,2.887-1.952,5.027l12.101-0.007c0-2.211-0.494-3.902-1.482-5.079
				C266.524,69.624,265.117,69.037,263.284,69.039"/>
			<path fill="#56A7DD" d="M294.49,86.548h-0.191c-1.621,2.353-4.037,3.529-7.264,3.532c-3.025,0.002-5.382-1.031-7.067-3.101
				c-1.685-2.067-2.526-5.009-2.53-8.825c0-3.817,0.841-6.78,2.53-8.894c1.69-2.112,4.038-3.17,7.054-3.172
				c3.138-0.002,5.546,1.139,7.223,3.417h0.274l-0.148-1.668l-0.084-1.626l-0.009-9.419l3.506-0.002l0.021,32.861l-2.851,0.002
				L294.49,86.548z M287.479,87.145c2.391-0.002,4.127-0.653,5.204-1.956c1.077-1.305,1.613-3.406,1.613-6.306l-0.004-0.739
				c0-3.28-0.545-5.622-1.639-7.02c-1.094-1.4-2.834-2.101-5.229-2.099c-2.053,0.002-3.628,0.8-4.718,2.399
				c-1.09,1.601-1.635,3.856-1.635,6.771c0.005,2.956,0.55,5.189,1.631,6.692C283.786,86.393,285.379,87.146,287.479,87.145"/>
			<path fill="#56A7DD" d="M327.233,66.107c3.041-0.002,5.401,1.037,7.087,3.111c1.681,2.076,2.525,5.014,2.525,8.815
				c0.004,3.802-0.845,6.756-2.538,8.862c-1.693,2.108-4.047,3.159-7.062,3.161c-1.504,0-2.881-0.276-4.131-0.832
				c-1.246-0.553-2.29-1.408-3.134-2.564h-0.254l-0.739,2.978l-2.513,0.002l-0.021-32.861l3.505-0.002l0.009,7.983
				c0,1.789-0.055,3.394-0.169,4.815h0.169C321.598,67.268,324.023,66.11,327.233,66.107 M326.726,69.043
				c-2.391,0.002-4.118,0.688-5.174,2.063c-1.052,1.373-1.58,3.686-1.58,6.938c0.004,3.252,0.549,5.58,1.631,6.98
				c1.085,1.398,2.825,2.099,5.22,2.097c2.153,0,3.759-0.788,4.811-2.357c1.057-1.569,1.584-3.829,1.58-6.771
				c0-3.013-0.528-5.256-1.588-6.735C330.57,69.78,328.939,69.043,326.726,69.043"/>
			<path fill="#56A7DD" d="M339.292,66.481l3.755-0.002l5.077,13.195c1.115,3.014,1.804,5.189,2.074,6.526h0.169
				c0.181-0.718,0.565-1.947,1.148-3.688c0.583-1.738,2.492-7.085,5.724-16.042l3.759-0.002l-9.931,26.363
				c-0.983,2.604-2.133,4.452-3.45,5.544c-1.313,1.094-2.932,1.639-4.846,1.641c-1.067,0-2.124-0.12-3.167-0.357v-2.809
				c0.773,0.167,1.644,0.251,2.598,0.251c2.407-0.002,4.123-1.353,5.148-4.056l1.284-3.297L339.292,66.481z"/>
			<polygon fill="#56A7DD" points="184.502,89.717 180.912,89.719 180.903,75.188 164.642,75.2 164.65,89.729 161.06,89.732 
				161.043,58.855 164.633,58.854 164.642,71.99 180.903,71.979 180.895,58.843 184.485,58.841 			"/>
		</g>
	</g>
	<g>
		<path fill="#56A7DD" d="M527.925,250.215c0.87-4.318,2.258-15.648,1.896-25.188c-0.437-11.515-4.915-22.549-12.613-31.072
			c-7.687-8.515-18.758-13.018-32.013-13.018c-0.756,0-1.52,0.014-2.309,0.045c-34.734,1.055-57.866,26.419-63.739,66.19
			c-3.175,21.492,0.477,38.795,10.56,50.034c7.807,8.7,23.924,13.3,37.875,13.3c0.661,0,1.326-0.011,1.998-0.03
			c25.298-0.771,39.087-9.353,53.314-27.013l1.038-1.283l-22.427-13.964l-0.852,0.836c-8.625,8.496-15.785,12.442-29.399,12.858
			c-0.294,0.009-0.586,0.014-0.874,0.014c-5.824,0-10.407-1.837-13.7-5.388c-9.819-10.582-5.156-26.321-5.156-26.321H527.925z
			 M455.739,226.788c3.862-13.146,13.227-20.902,25.695-21.285c0.314-0.008,0.628-0.014,0.938-0.014
			c5.875,0,8.091,1.726,11.23,5.128c2.916,3.157,4.406,7.64,4.651,13.316c0.031,0.719,0.042,4.967-0.024,6.003h-43.412
			L455.739,226.788z"/>
		<path fill="#56A7DD" d="M177.308,186.359c-12.015,0-20.948,2.918-28.965,9.46l-4.354,3.555l14.833-66.077h-34.864L84.816,310.375
			h41.867c42.081,0,85.048-30.734,85.048-79.593C211.731,203.38,198.541,186.359,177.308,186.359 M133.264,282.962
			c-1.828,0-3.406,0-4.858-0.289l-2.389-0.477l6.386-28.461c6.464-28.986,21.507-36.72,29.374-36.72
			c5.169,0,13.836,2.622,13.836,20.181C175.613,264.572,153.716,282.962,133.264,282.962"/>
		<path fill="#56A7DD" d="M383.119,279.015c-13.795,2.997-9.609-9.97-9.609-9.97l13.514-54.491h25.527l6.579-28.197h-26.289
			l7.792-35.559h-33.056l-8.219,35.559h-23.525l0.003-0.011l-11.86,0.011h-0.87v0.001l-22.85,0.02l-33.589,80.391l-15.764-80.358
			h-36.104l27.448,118.441l0.002,0.264c0.031,5.191-1.887,9.769-5.703,13.607c-7.77,7.815-21.578,10.549-28.332,11.254l9.369,28.232
			c42.587-1.227,64.699-47.31,64.96-47.967l41.159-95.688h26.972l-12.646,54.386c-0.974,4.875-1.713,9.019-1.713,13.391
			c0,16.592,13.472,28.29,32.231,28.045c14.962-0.196,27.363-1.377,46.894-11.669l-11.868-25.358
			C391.943,276.939,388.399,277.868,383.119,279.015"/>
	</g>
</g>
</svg>
