<?xml version="1.0" encoding="utf-8"?>
<!-- Generator: Adobe Illustrator 22.1.0, SVG Export Plug-In . SVG Version: 6.00 Build 0)  -->
<svg version="1.1" id="Laag_1" xmlns="http://www.w3.org/2000/svg" xmlns:xlink="http://www.w3.org/1999/xlink" x="0px" y="0px"
	 viewBox="0 0 545 150" style="enable-background:new 0 0 545 150;" xml:space="preserve">
<style type="text/css">
	.st0{display:none;fill:#00366C;}
	.st1{fill:#EB690B;}
	.st2{fill:#51B3DB;}
	.st3{fill:#FFFFFF;}
</style>
<g id="Hypernode_logo_diap">
	<rect x="-57.9" y="-18" class="st0" width="648.1" height="182.7"/>
	<g id="Hypernode_logo_1_">
		<path class="st1" d="M108.1,23.8c-1.8,0-3.3,1.5-3.3,3.3v19.1c0,1.4-1.1,2.5-2.5,2.5H73.9c-1.4,0-2.5-1.1-2.5-2.5V27.1
			c0-1.8-1.5-3.3-3.3-3.3s-3.3,1.5-3.3,3.3v19.1l0,0l0,0l0,0l0,0c0,5,4.1,9.1,9.1,9.1h10.9v17c0,1.8,1.5,3.3,3.3,3.3
			s3.3-1.5,3.3-3.3v-17h10.9c5,0,9.1-4.1,9.1-9.1V27.1C111.4,25.2,110,23.8,108.1,23.8z"/>
		<path class="st2" d="M511.1,120.1c0.1-0.7,0.4-2.6,0.3-4.2c-0.1-1.9-0.8-3.7-2.1-5.2c-1.3-1.4-3.1-2.2-5.3-2.2h-0.4
			c-5.8,0.2-9.6,4.4-10.6,11c-0.5,3.6,0.1,6.4,1.8,8.3c1.3,1.4,4,2.2,6.3,2.2h0.3c4.2-0.1,6.5-1.6,8.9-4.5l0.2-0.2l-3.7-2.3
			l-0.1,0.1c-1.4,1.4-2.6,2.1-4.9,2.1h-0.1c-1,0-1.7-0.3-2.3-0.9c-1.6-1.8-0.9-4.4-0.9-4.4h12.6V120.1z M499.1,116.2
			c0.6-2.2,2.2-3.5,4.3-3.5h0.2c1,0,1.3,0.3,1.9,0.9c0.5,0.5,0.7,1.3,0.8,2.2v1h-7.2V116.2z M452.8,109.5c-2,0-3.5,0.5-4.8,1.6
			l-0.7,0.6l2.5-11H444l-6.5,29.4h7c7,0,14.1-5.1,14.1-13.2C458.5,112.3,456.3,109.5,452.8,109.5z M445.5,125.5c-0.3,0-0.6,0-0.8,0
			l-0.4-0.1l1.1-4.7c1.1-4.8,3.6-6.1,4.9-6.1c0.9,0,2.3,0.4,2.3,3.4C452.5,122.5,448.9,125.5,445.5,125.5z M487,124.9
			c-2.3,0.5-1.6-1.7-1.6-1.7l2.2-9.1h4.2l1.1-4.7h-4.4l1.3-5.9h-5.5l-1.4,5.9H479l0,0h-2h0h-3.8l-5.6,13.4l-2.6-13.4h-6l4.6,19.7
			l0,0c0,0.9-0.3,1.6-0.9,2.3c-1.3,1.3-3.6,1.8-4.7,1.9l1.6,4.7c7.1-0.2,10.8-7.9,10.8-8l6.8-15.9h4.5l-2.1,9
			c-0.2,0.8-0.3,1.5-0.3,2.2c0,2.8,2.2,4.7,5.4,4.7c2.5,0,4.5-0.2,7.8-1.9l-2-4.2C488.5,124.5,487.9,124.7,487,124.9z M402.8,115.2
			c-1.9,0-3.7,0.8-5,2.1v-6.7c0-0.7-0.5-1.2-1.2-1.2s-1.2,0.5-1.2,1.2v18c0,0.7,0.5,1.2,1.2,1.2s1.2-0.5,1.2-1.2V128
			c1.3,1.3,3,2.1,5,2.1c4,0,7.1-3.4,7.1-7.4C410,118.5,406.8,115.2,402.8,115.2z M402.8,127.6c-2.6,0-4.7-2.2-4.7-5s2.2-5,4.7-5
			c2.6,0,4.7,2.2,4.7,5C407.6,125.4,405.4,127.6,402.8,127.6z M424.3,115.2c-0.6-0.2-1.3,0-1.6,0.7c0,0-1.2,3.1-2.6,6.4
			c-0.6,1.4-1.2,2.9-1.7,4.2l-4.9-10.7c-0.3-0.6-1-0.9-1.6-0.6c-0.6,0.3-0.9,1-0.6,1.6l5.8,12.8c-0.1,0.2-0.2,0.4-0.2,0.5l0,0
			c-0.2,0.6-0.6,1-0.9,1.3c-0.4,0.3-0.8,0.4-1.3,0.4c-0.4,0-0.9-0.1-1.5-0.4c-0.6-0.3-1.3,0-1.6,0.6c-0.3,0.6,0,1.3,0.6,1.6
			c0.9,0.4,1.7,0.6,2.5,0.6c1.1,0,2-0.4,2.8-0.9c0.8-0.6,1.3-1.4,1.7-2.3l0,0c0.8-1.9,5.8-14.2,5.8-14.2
			C425.3,116.2,425,115.5,424.3,115.2z"/>
		<path class="st3" d="M530.5,12.6c-4.3,0-7.7,3.5-7.7,7.7c0,4.3,3.5,7.7,7.7,7.7c4.3,0,7.7-3.5,7.7-7.7S534.8,12.6,530.5,12.6z
			 M530.5,26.8c-3.6,0-6.5-2.9-6.5-6.5s2.9-6.5,6.5-6.5s6.5,2.9,6.5,6.5C537,23.9,534.1,26.8,530.5,26.8z M531.1,17.3h-2.8l-0.4,0.2
			l-0.2,0.4v5.6c0,0.3,0.3,0.6,0.6,0.6s0.6-0.3,0.6-0.6v-5h2.2c0.6,0,1,0.4,1,1s-0.5,1-1,1h-0.8c-0.3,0-0.6,0.3-0.6,0.6
			s0.3,0.6,0.6,0.6h0.8c0.1,0,0.2,0,0.2,0h0.1c0.3,0,0.6,0.2,0.6,0.6v1.3c0,0.3,0.3,0.6,0.6,0.6s0.6-0.3,0.6-0.6v-1.3
			c0-0.5-0.2-0.9-0.5-1.2c0.4-0.4,0.6-0.9,0.6-1.5C533.3,18.2,532.3,17.3,531.1,17.3z M46.5,23.9c-1.8,0-3.3,1.5-3.3,3.3v19.3H14.7
			V27.2c0-1.8-1.5-3.3-3.3-3.3s-3.3,1.5-3.3,3.3v45.1c0,1.8,1.5,3.3,3.3,3.3s3.3-1.5,3.3-3.3V53.1h28.5v19.1c0,1.8,1.5,3.3,3.3,3.3
			s3.3-1.5,3.3-3.3v-45C49.8,25.4,48.4,23.9,46.5,23.9z M188.7,30.5h25.8c1.8,0,3.3-1.5,3.3-3.3s-1.5-3.3-3.3-3.3h-25.8
			c-4.6,0-8.4,3.8-8.4,8.4v34.9c0,4.6,3.8,8.4,8.4,8.4h25.8c1.8,0,3.3-1.5,3.3-3.3s-1.5-3.3-3.3-3.3h-25.8c-1,0-1.8-0.8-1.8-1.8
			V52.7h22.5c1.8,0,3.3-1.5,3.3-3.3s-1.5-3.3-3.3-3.3h-22.5V32.3C186.9,31.3,187.7,30.5,188.7,30.5z M332.8,23.9
			c-1.8,0-3.3,1.5-3.3,3.3v35.9l-31.2-38c-0.9-1.1-2.3-1.5-3.7-1c-1.3,0.5-2.2,1.7-2.2,3.1v45.1c0,1.8,1.5,3.3,3.3,3.3
			s3.3-1.5,3.3-3.3V36.4l31.2,38c0.9,1.1,2.3,1.5,3.7,1c1.3-0.5,2.2-1.7,2.2-3.1V27.2C336.1,25.4,334.6,23.9,332.8,23.9z
			 M484.7,30.5h25.8c1.8,0,3.3-1.5,3.3-3.3s-1.5-3.3-3.3-3.3h-25.8c-4.6,0-8.4,3.8-8.4,8.4v34.9c0,4.6,3.8,8.4,8.4,8.4h25.8
			c1.8,0,3.3-1.5,3.3-3.3s-1.5-3.3-3.3-3.3h-25.8c-1,0-1.8-0.8-1.8-1.8V52.7h22.5c1.8,0,3.3-1.5,3.3-3.3s-1.5-3.3-3.3-3.3h-22.5
			V32.3C482.9,31.3,483.7,30.5,484.7,30.5z M156.3,26.1c-3.2-1.6-7-2.2-11.6-2.2h-15.3c0,0,0,0-0.1,0c-1.8,0-3.3,1.5-3.3,3.3v45.1
			c0,1.8,1.5,3.3,3.3,3.3s3.3-1.5,3.3-3.3v-15h11.8c5.6,0,10.6-1.5,14.2-4.4c3.7-2.9,5.8-7.4,5.8-12.3v-0.2c0-2.5-0.4-4.8-1.2-7
			C161.9,30.3,159.5,27.7,156.3,26.1z M157.8,40.6c0,3.1-1.2,5.3-3.3,7.1c-2.2,1.8-5.6,3-10.1,3h-11.8V30.5h12.1
			c5.2,0,8.5,1.1,10.3,2.6c0.9,0.8,1.6,1.6,2,2.8c0.5,1.2,0.7,2.7,0.7,4.5v0.2H157.8z M267.3,26c-3-1.5-6.7-2.1-11-2.1h-18.6
			c0,0,0,0-0.1,0c-1.8,0-3.3,1.5-3.3,3.3v45.1c0,1.8,1.5,3.3,3.3,3.3s3.3-1.5,3.3-3.3V30.5h15.4c4.9,0,7.9,1,9.6,2.4
			c0.8,0.7,1.4,1.5,1.9,2.6c0.4,1.1,0.7,2.5,0.7,4.2v0.2c0,2.9-1.1,4.9-3.1,6.6c-2,1.6-5.2,2.7-9.4,2.7h-6.1c-1.8,0-3.3,1.5-3.3,3.3
			s1.5,3.3,3.3,3.3h12.3c3.3,0,5.9,2.7,5.9,5.9v10.2c0,1.8,1.5,3.3,3.3,3.3s3.3-1.5,3.3-3.3V61.7c0-4.2-2.1-7.8-5.2-10.1l0,0
			c3.5-2.8,5.6-7,5.6-11.7v-0.2c0-2.4-0.3-4.6-1.2-6.6C272.7,30,270.3,27.5,267.3,26z M376.4,22.4c-7.2,0-13.7,3-18.4,7.9
			c-4.7,4.8-7.6,11.5-7.6,18.9c0,7.3,2.9,14,7.6,18.9c4.7,4.8,11.2,7.9,18.4,7.9c7.2,0,13.7-3,18.4-7.9c4.7-4.8,7.6-11.5,7.6-18.9
			c0-7.3-2.9-14-7.6-18.9C390.1,25.5,383.6,22.4,376.4,22.4z M390,63.5c-3.5,3.6-8.3,5.9-13.6,5.9c-5.3,0-10.1-2.2-13.6-5.9
			c-3.5-3.6-5.7-8.7-5.7-14.3c0-5.6,2.2-10.6,5.7-14.3c3.5-3.6,8.3-5.9,13.6-5.9c5.3,0,10.1,2.2,13.6,5.9c3.5,3.6,5.7,8.7,5.7,14.3
			C395.7,54.8,393.5,59.8,390,63.5z M435.4,23.9h-16.6c-0.9,0-1.7,0.4-2.3,1s-1,1.5-1,2.3v45.1c0,0.9,0.4,1.7,1,2.3
			c0.6,0.6,1.5,1,2.3,1h16.6c14.3,0,25.8-11.6,25.8-25.8C461.3,35.4,449.7,23.9,435.4,23.9z M449,63.3c-3.5,3.5-8.3,5.6-13.6,5.6
			h-13.3V30.5h13.3c5.3,0,10.1,2.1,13.6,5.6s5.6,8.3,5.6,13.6C454.7,55,452.5,59.8,449,63.3z"/>
	</g>
</g>
</svg>
